<svg xmlns="http://www.w3.org/2000/svg" viewBox="0 0 800 760" width="800" height="760"><circle cx="400" cy="380" r="330" fill="#fff" opacity=".92"/><circle cx="400" cy="380" r="362" fill="none" stroke="#fff" stroke-width="2" opacity=".7" stroke-dasharray="3 10"/><g transform="translate(640 300) rotate(28) scale(1.1)"><path stroke="#7fae8a" stroke-width="3" fill="none" d="M0 0V-170"/><g transform="translate(0 0) rotate(38)"><path fill="#a9d1b0" d="M0 0C-9-12-8-30 0-42 8-30 9-12 0 0z"/></g><g transform="translate(0 -34) rotate(-38)"><path fill="#a9d1b0" d="M0 0C-9-12-8-30 0-42 8-30 9-12 0 0z"/></g><g transform="translate(0 -68) rotate(38)"><path fill="#a9d1b0" d="M0 0C-9-12-8-30 0-42 8-30 9-12 0 0z"/></g><g transform="translate(0 -102) rotate(-38)"><path fill="#a9d1b0" d="M0 0C-9-12-8-30 0-42 8-30 9-12 0 0z"/></g><g transform="translate(0 -136) rotate(38)"><path fill="#a9d1b0" d="M0 0C-9-12-8-30 0-42 8-30 9-12 0 0z"/></g></g><g transform="translate(170 330) rotate(-30) scale(0.9)"><path stroke="#7fae8a" stroke-width="3" fill="none" d="M0 0V-170"/><g transform="translate(0 0) rotate(38)"><path fill="#a9d1b0" d="M0 0C-9-12-8-30 0-42 8-30 9-12 0 0z"/></g><g transform="translate(0 -34) rotate(-38)"><path fill="#a9d1b0" d="M0 0C-9-12-8-30 0-42 8-30 9-12 0 0z"/></g><g transform="translate(0 -68) rotate(38)"><path fill="#a9d1b0" d="M0 0C-9-12-8-30 0-42 8-30 9-12 0 0z"/></g><g transform="translate(0 -102) rotate(-38)"><path fill="#a9d1b0" d="M0 0C-9-12-8-30 0-42 8-30 9-12 0 0z"/></g><g transform="translate(0 -136) rotate(38)"><path fill="#a9d1b0" d="M0 0C-9-12-8-30 0-42 8-30 9-12 0 0z"/></g></g><ellipse cx="400" cy="564" rx="300" ry="26.0" fill="#2a6dbf" opacity="0.12"/><ellipse cx="150" cy="560" rx="44" ry="5.3" fill="#2a6dbf" opacity="0.12"/><g transform="translate(150 560) scale(1.6)"><g transform="translate(-4 -60) rotate(-40) scale(1.2)"><path fill="#a9d1b0" d="M0 0C-14-20-12-46 0-64 12-46 14-20 0 0z"/><path stroke="#7fae8a" stroke-width="2" fill="none" d="M0-4V-56"/></g><g transform="translate(4 -60) rotate(35) scale(1.25)"><path fill="#a9d1b0" d="M0 0C-14-20-12-46 0-64 12-46 14-20 0 0z"/><path stroke="#7fae8a" stroke-width="2" fill="none" d="M0-4V-56"/></g><g transform="translate(0 -62) rotate(-8) scale(1.45)"><path fill="#a9d1b0" d="M0 0C-14-20-12-46 0-64 12-46 14-20 0 0z"/><path stroke="#7fae8a" stroke-width="2" fill="none" d="M0-4V-56"/></g><g transform="translate(-8 -58) rotate(-70) scale(1.0)"><path fill="#a9d1b0" d="M0 0C-14-20-12-46 0-64 12-46 14-20 0 0z"/><path stroke="#7fae8a" stroke-width="2" fill="none" d="M0-4V-56"/></g><g transform="translate(8 -58) rotate(70) scale(1.0)"><path fill="#a9d1b0" d="M0 0C-14-20-12-46 0-64 12-46 14-20 0 0z"/><path stroke="#7fae8a" stroke-width="2" fill="none" d="M0-4V-56"/></g><path fill="#fff" stroke="#d6e8f8" stroke-width="2" d="M-30-62h60l-7 62h-46z"/><rect x="-33" y="-66" width="66" height="12" rx="4" fill="#b8e0ff"/></g><ellipse cx="262" cy="560" rx="38" ry="4.6" fill="#2a6dbf" opacity="0.12"/><g transform="translate(262 560) scale(1.45)"><rect x="-12" y="-232" width="24" height="24" rx="4" fill="#2a6dbf"/><rect x="-9" y="-210" width="18" height="40" fill="#e3d27c"/><path fill="#dcc76a" d="M-9-172c0 22-21 26-21 52v108a12 12 0 0 0 12 12h36a12 12 0 0 0 12-12v-108c0-26-21-30-21-52z"/><path fill="#c7ae4a" opacity=".55" d="M8-150c10 8 22 14 22 30v108a12 12 0 0 1-12 12H6z"/><rect x="-25" y="-118" width="5" height="96" rx="2.5" fill="#fff" opacity=".5"/><rect x="-22" y="-98" width="44" height="58" rx="6" fill="#fff"/><g transform="translate(0 -74) rotate(-25)"><ellipse rx="7" ry="10" fill="#8ea35a"/><ellipse cx="-2" cy="-3" rx="2" ry="3" fill="#b8c98a"/></g><path fill="#9fb86a" d="M4-80c6-6 12-6 14-4-4 5-9 6-14 4z"/><rect x="-14" y="-56" width="28" height="4" rx="2" fill="#2a6dbf"/><rect x="-9" y="-48" width="18" height="3.5" rx="1.75" fill="#b8e0ff"/></g><ellipse cx="398" cy="560" rx="64" ry="7.7" fill="#2a6dbf" opacity="0.12"/><g transform="translate(398 560) scale(1.62)"><rect x="-22" y="-200" width="44" height="26" rx="6" fill="#2a6dbf"/><rect x="-17" y="-178" width="34" height="30" fill="#e6f2fe"/><path fill="#e6f2fe" stroke="#b8e0ff" stroke-width="2" d="M-17-150c0 12-25 16-25 38v98a14 14 0 0 0 14 14h56a14 14 0 0 0 14-14v-98c0-22-25-26-25-38z"/><path fill="#cfe7ff" d="M-36-118h72v102a10 10 0 0 1-10 10h-52a10 10 0 0 1-10-10z"/><rect x="-33" y="-110" width="6" height="84" rx="3" fill="#fff" opacity=".85"/><rect x="-28" y="-94" width="56" height="54" rx="8" fill="#fff"/><g transform="translate(0 -76) scale(0.8)"><path fill="#4a90e2" d="M-8 8c0-9 6-15 16-16 0 10-6 16-16 16z"/><path fill="none" stroke="#fff" stroke-width="1.4" stroke-linecap="round" d="M-6 6l8-8"/></g><rect x="-18" y="-60" width="36" height="5" rx="2.5" fill="#2a6dbf"/><rect x="-12" y="-50" width="24" height="4" rx="2" fill="#b8e0ff"/></g><ellipse cx="548" cy="560" rx="68" ry="8.2" fill="#2a6dbf" opacity="0.12"/><g transform="translate(548 560) scale(1.28)"><path fill="#fff" stroke="#d6e8f8" stroke-width="2" d="M-52-176H52l6 164a12 12 0 0 1-12 12h-92a12 12 0 0 1-12-12z"/><path fill="#eef7ff" d="M-52-176H52l.5 16h-105z"/><path stroke="#b8e0ff" stroke-width="2.5" stroke-dasharray="5 4" d="M-50-148H50"/><rect x="-38" y="-124" width="76" height="76" rx="12" fill="#4a90e2"/><circle cx="-12" cy="-96" r="10" fill="#fff" opacity=".9"/><circle cx="12" cy="-104" r="6" fill="#fff" opacity=".7"/><circle cx="14" cy="-78" r="12" fill="#fff" opacity=".85"/><circle cx="-16" cy="-70" r="5" fill="#fff" opacity=".6"/><rect x="-30" y="-34" width="60" height="6" rx="3" fill="#b8e0ff"/><rect x="-20" y="-22" width="40" height="5" rx="2.5" fill="#eef7ff"/></g><ellipse cx="676" cy="560" rx="58" ry="7.0" fill="#2a6dbf" opacity="0.12"/><g transform="translate(676 560) scale(1.08)"><rect x="-58" y="-124" width="116" height="124" rx="22" fill="#fff" stroke="#d6e8f8" stroke-width="2"/><rect x="-57" y="-92" width="114" height="58" fill="#b8e0ff"/><rect x="-54" y="-150" width="108" height="30" rx="8" fill="#4a90e2"/><rect x="-54" y="-127" width="108" height="6" fill="#2a6dbf" opacity=".35"/><circle cx="0" cy="-63" r="17" fill="#fff"/><g transform="translate(0 -63) scale(0.85)"><path fill="#4a90e2" d="M-8 8c0-9 6-15 16-16 0 10-6 16-16 16z"/><path fill="none" stroke="#fff" stroke-width="1.4" stroke-linecap="round" d="M-6 6l8-8"/></g><rect x="-44" y="-112" width="10" height="100" rx="5" fill="#fff" opacity=".6"/><rect x="-26" y="-24" width="52" height="5" rx="2.5" fill="#b8e0ff"/></g><ellipse cx="418" cy="700" rx="118" ry="14.0" fill="#2a6dbf" opacity="0.12"/><g transform="translate(418 700) scale(1.55)"><g transform="translate(-50 -56) rotate(20)"><ellipse rx="11" ry="8" fill="#7b5537"/><path fill="none" stroke="#4f3522" stroke-width="2" stroke-linecap="round" d="M-8 0q4-3.5 8 0t8 0"/></g><g transform="translate(-30 -60) rotate(-15)"><ellipse rx="11" ry="8" fill="#7b5537"/><path fill="none" stroke="#4f3522" stroke-width="2" stroke-linecap="round" d="M-8 0q4-3.5 8 0t8 0"/></g><g transform="translate(-8 -62) rotate(30)"><ellipse rx="11" ry="8" fill="#7b5537"/><path fill="none" stroke="#4f3522" stroke-width="2" stroke-linecap="round" d="M-8 0q4-3.5 8 0t8 0"/></g><g transform="translate(14 -60) rotate(-30)"><ellipse rx="11" ry="8" fill="#7b5537"/><path fill="none" stroke="#4f3522" stroke-width="2" stroke-linecap="round" d="M-8 0q4-3.5 8 0t8 0"/></g><g transform="translate(36 -58) rotate(10)"><ellipse rx="11" ry="8" fill="#7b5537"/><path fill="none" stroke="#4f3522" stroke-width="2" stroke-linecap="round" d="M-8 0q4-3.5 8 0t8 0"/></g><g transform="translate(54 -55) rotate(-20)"><ellipse rx="11" ry="8" fill="#7b5537"/><path fill="none" stroke="#4f3522" stroke-width="2" stroke-linecap="round" d="M-8 0q4-3.5 8 0t8 0"/></g><g transform="translate(-40 -72) rotate(-35)"><ellipse rx="11" ry="8" fill="#7b5537"/><path fill="none" stroke="#4f3522" stroke-width="2" stroke-linecap="round" d="M-8 0q4-3.5 8 0t8 0"/></g><g transform="translate(-18 -78) rotate(15)"><ellipse rx="11" ry="8" fill="#7b5537"/><path fill="none" stroke="#4f3522" stroke-width="2" stroke-linecap="round" d="M-8 0q4-3.5 8 0t8 0"/></g><g transform="translate(4 -80) rotate(-10)"><ellipse rx="11" ry="8" fill="#7b5537"/><path fill="none" stroke="#4f3522" stroke-width="2" stroke-linecap="round" d="M-8 0q4-3.5 8 0t8 0"/></g><g transform="translate(26 -74) rotate(40)"><ellipse rx="11" ry="8" fill="#7b5537"/><path fill="none" stroke="#4f3522" stroke-width="2" stroke-linecap="round" d="M-8 0q4-3.5 8 0t8 0"/></g><g transform="translate(44 -68) rotate(-5)"><ellipse rx="11" ry="8" fill="#7b5537"/><path fill="none" stroke="#4f3522" stroke-width="2" stroke-linecap="round" d="M-8 0q4-3.5 8 0t8 0"/></g><g transform="translate(-6 -94) rotate(25)"><ellipse rx="11" ry="8" fill="#7b5537"/><path fill="none" stroke="#4f3522" stroke-width="2" stroke-linecap="round" d="M-8 0q4-3.5 8 0t8 0"/></g><g transform="translate(16 -90) rotate(-40)"><ellipse rx="11" ry="8" fill="#7b5537"/><path fill="none" stroke="#4f3522" stroke-width="2" stroke-linecap="round" d="M-8 0q4-3.5 8 0t8 0"/></g><g transform="translate(-28 -88) rotate(5)"><ellipse rx="11" ry="8" fill="#7b5537"/><path fill="none" stroke="#4f3522" stroke-width="2" stroke-linecap="round" d="M-8 0q4-3.5 8 0t8 0"/></g><path fill="#fff" stroke="#d6e8f8" stroke-width="2" d="M-74-52H74C74-18 42 0 0 0s-74-18-74-52z"/><path fill="#b8e0ff" d="M-70-36h140c-3 5-6 9-10 13h-120c-4-4-7-8-10-13z"/></g><g transform="translate(640 120) scale(1.8)"><path fill="#4a90e2" opacity="0.7" d="M0-12C1-4 4-1 12 0 4 1 1 4 0 12-1 4-4 1-12 0-4-1-1-4 0-12z"/></g><g transform="translate(150 170) scale(1.1)"><path fill="#4a90e2" opacity="0.45" d="M0-12C1-4 4-1 12 0 4 1 1 4 0 12-1 4-4 1-12 0-4-1-1-4 0-12z"/></g><g transform="translate(730 640) scale(1)"><path fill="#fff" opacity="1" d="M0-12C1-4 4-1 12 0 4 1 1 4 0 12-1 4-4 1-12 0-4-1-1-4 0-12z"/></g></svg>
